<?xml version="1.0" encoding="UTF-8"?>
<svg width="102px" height="32px" viewBox="0 0 102 32" version="1.1" xmlns="http://www.w3.org/2000/svg" xmlns:xlink="http://www.w3.org/1999/xlink">
    <title>790E3A38-3636-4D4F-8FDE-72E5E3BC414A</title>
    <g id="Jose" stroke="none" stroke-width="1" fill="none" fill-rule="evenodd">
        <g id="Orders1" transform="translate(-137.000000, -60.000000)" fill-rule="nonzero">
            <g id="Group-2" transform="translate(0.000000, 44.000000)">
                <g id="eatOS-mobileLogo" transform="translate(137.000000, 16.000000)">
                    <path d="M14.8867314,13.8495061 C14.0824977,13.1885794 13.0637983,12.8404691 12.0203421,12.8700026 C10.9095216,12.869398 9.82831075,13.2256968 8.93820311,13.885681 C8.02538158,14.5294123 7.43301293,15.5298192 7.31027333,16.6349692 L16.2568823,16.6349692 C16.1279928,15.4328513 15.6712759,14.5043636 14.8867314,13.8495061 Z M31.9617815,20.0966236 C29.6866025,20.0966236 28.549013,20.8034244 28.549013,22.2058954 C28.5192714,22.8635058 28.82598,23.4915468 29.3643789,23.8755036 C29.9079561,24.2650788 30.6840948,24.4570838 31.6955967,24.4570838 C32.6682909,24.4709351 33.6147705,24.1438169 34.3686518,23.5332339 C35.1274734,22.9426116 35.5564596,22.0274597 35.523053,21.0705618 L35.523053,20.0882756 L31.9617815,20.0966236 Z M31.9617815,20.0966236 C29.6866025,20.0966236 28.549013,20.8034244 28.549013,22.2058954 C28.5192714,22.8635058 28.82598,23.4915468 29.3643789,23.8755036 C29.9079561,24.2650788 30.6840948,24.4570838 31.6955967,24.4570838 C32.6682909,24.4709351 33.6147705,24.1438169 34.3686518,23.5332339 C35.1274734,22.9426116 35.5564596,22.0274597 35.523053,21.0705618 L35.523053,20.0882756 L31.9617815,20.0966236 Z M14.8867314,13.8495061 C14.0824977,13.1885794 13.0637983,12.8404691 12.0203421,12.8700026 C10.9095216,12.869398 9.82831075,13.2256968 8.93820311,13.885681 C8.02538158,14.5294123 7.43301293,15.5298192 7.31027333,16.6349692 L16.2568823,16.6349692 C16.1279928,15.4328513 15.6712759,14.5043636 14.8867314,13.8495061 L14.8867314,13.8495061 Z M57.1316494,8.54015195 L57.1316494,4.98945177 C57.1316494,2.43495117 55.4000476,0.345158198 53.2621639,0.345158198 L3.86948542,0.345158198 C1.73440368,0.345158198 0,2.43495117 0,4.98945177 L0,26.5440941 C0,29.1125081 1.73440368,31.2023011 3.86948542,31.2023011 L53.2705698,31.2023011 C55.3608204,31.2023011 57.0784124,29.1876405 57.1400552,26.6971415 C55.3608204,28.2971827 53.4975273,29.095812 51.5529778,29.095812 C49.7047278,29.1388184 47.9155832,28.4477123 46.5823281,27.1757625 C45.2373948,25.8985122 44.5537203,24.1454236 44.5537203,21.9471061 L44.5537203,12.613996 L42.1720674,12.613996 L42.1720674,8.54015195 L44.5537203,8.54015195 L44.5537203,2.48225674 L50.2836969,2.48225674 L50.2836969,8.54015195 L57.1316494,8.54015195 Z M22.0148783,20.6642904 L7.16457221,20.6642904 C7.3403656,21.7685093 7.97203122,22.7498357 8.90738172,23.3718384 C9.87603993,24.0720688 11.0464811,24.4429418 12.2444977,24.429257 C14.2394822,24.429257 15.8814217,23.7641964 17.1703162,22.4340751 L20.3561272,25.856772 C18.1980621,27.9595047 15.2872417,29.1246363 12.2641113,29.095812 C9.16889655,29.095812 6.60978719,28.1478455 4.58678323,26.2519126 C2.56377926,24.3559797 1.55040932,21.8153925 1.54667339,18.630151 C1.54667339,15.4449096 2.57405306,12.9098877 4.6288124,11.0250855 C6.59693212,9.18204635 9.20898895,8.17034805 11.9138682,8.20344762 C14.7158128,8.20344762 17.0983996,9.0438171 19.0616288,10.7245561 C21.0248579,12.405295 22.0036705,14.7149197 21.9980667,17.6534302 L22.0148783,20.6642904 Z M41.2474257,28.7952825 L35.9041175,28.7952825 L35.9041175,26.3353931 C34.4377665,28.1682519 32.6239744,29.0846813 30.4627411,29.0846813 C28.3015079,29.0846813 26.4886498,28.4641435 25.0241668,27.2230681 C23.5596838,25.9782824 22.8265083,24.32166 22.8246369,22.2532009 C22.8227723,20.1847418 23.5811653,18.6347888 25.0998193,17.603342 C26.6166053,16.5737502 28.6891102,16.0589544 31.3173342,16.0589544 L35.5566763,16.0589544 L35.5566763,15.9476472 C35.5566763,13.7882872 34.4069451,12.7086072 32.1074826,12.7086072 C31.0391018,12.7236008 29.9813082,12.9212795 28.9805125,13.2929701 C27.9761223,13.6281676 27.0307123,14.1173397 26.1785679,14.7427465 L23.6400062,11.0918699 C26.3007803,9.16382162 29.5201572,8.14625077 32.8135726,8.1923169 C35.2904916,8.1923169 37.3116276,8.80728927 38.8769806,10.037234 C40.4423336,11.2671787 41.2259441,13.215055 41.2278121,15.8808628 L41.2474257,28.7952825 Z M28.551815,22.2058954 C28.5220733,22.8635058 28.8287819,23.4915468 29.3671808,23.8755036 C29.9107581,24.2650788 30.6868967,24.4570838 31.6983987,24.4570838 C32.6710928,24.4709351 33.6175724,24.1438169 34.3714538,23.5332339 C35.1302753,22.9426116 35.5592615,22.0274597 35.5258549,21.0705618 L35.5258549,20.0882756 L31.9617815,20.0882756 C29.6866025,20.0966236 28.551815,20.8034244 28.551815,22.2058954 Z M14.8895333,13.8578542 C14.0857657,13.1932838 13.0658297,12.8421238 12.0203421,12.8700026 C10.9095216,12.869398 9.82831075,13.2256968 8.93820311,13.885681 C8.02538158,14.5294123 7.43301293,15.5298192 7.31027333,16.6349692 L16.2568823,16.6349692 C16.1279928,15.4328513 15.6712759,14.5043636 14.8867314,13.8495061 L14.8895333,13.8578542 Z M14.8895333,13.8578542 C14.0857657,13.1932838 13.0658297,12.8421238 12.0203421,12.8700026 C10.9095216,12.869398 9.82831075,13.2256968 8.93820311,13.885681 C8.02538158,14.5294123 7.43301293,15.5298192 7.31027333,16.6349692 L16.2568823,16.6349692 C16.1279928,15.4328513 15.6712759,14.5043636 14.8867314,13.8495061 L14.8895333,13.8578542 Z M14.8895333,13.8578542 C14.0857657,13.1932838 13.0658297,12.8421238 12.0203421,12.8700026 C10.9095216,12.869398 9.82831075,13.2256968 8.93820311,13.885681 C8.02538158,14.5294123 7.43301293,15.5298192 7.31027333,16.6349692 L16.2568823,16.6349692 C16.1279928,15.4328513 15.6712759,14.5043636 14.8867314,13.8495061 L14.8895333,13.8578542 Z M50.2864988,12.6223441 L50.2864988,21.6938822 C50.2475331,22.3527466 50.4629696,23.0015785 50.8889169,23.5081898 C51.2460705,23.930478 51.7738181,24.1731635 52.3291164,24.1704677 C53.3966573,24.1704677 54.2904776,23.6918467 55.0245871,22.74017 L57.1428571,26.6915761 L57.1428571,12.613996 L50.2864988,12.6223441 Z" id="Shape" fill="#E91E63"></path>
                    <path d="M79.9975564,19.2241028 C80.0595299,22.1218527 78.94034,24.9149115 76.9092798,26.9312294 C74.8504288,29.0186368 72.2622129,30.0613713 69.1446322,30.0594359 C66.0270516,30.057495 63.4378904,29.0147604 61.3771488,26.9312294 C57.2552361,22.6540267 57.2552361,15.773828 61.3771488,11.4966254 C63.439781,9.39758898 66.0289421,8.34710171 69.1446322,8.34516087 C72.2603223,8.34322538 74.8485382,9.39371265 76.9092798,11.4966254 C78.9399318,13.5216287 80.0585293,16.3205804 79.9975564,19.2241028 L79.9975564,19.2241028 Z M64.0428788,19.2241028 C64.0428788,20.9451963 64.5202524,22.346492 65.4749997,23.42799 C66.4253116,24.4646477 67.7512874,25.0525827 69.1389605,25.0525827 C70.5266335,25.0525827 71.8526093,24.4646477 72.8029213,23.42799 C73.7482156,22.346492 74.2208628,20.9451963 74.2208628,19.2241028 C74.2208628,17.5030092 73.7482156,16.0939608 72.8029213,14.9969575 C71.8582265,13.9499897 70.5301586,13.3547381 69.1389605,13.3547381 C67.7477623,13.3547381 66.4196945,13.9499897 65.4749997,14.9969575 C64.522143,16.0939608 64.0447694,17.5030092 64.0428788,19.2241028 Z" id="Shape" fill="#E91E63"></path>
                    <path d="M97.1428571,23.1925082 C97.1428571,25.2682881 96.3977211,26.9312378 94.907449,28.1813573 C93.4171769,29.4314769 91.5259687,30.0575057 89.2338243,30.0594439 C87.6096736,30.0430936 85.9986357,29.7594127 84.4623059,29.2192473 C82.8405211,28.6765784 81.3285051,27.8362884 80,26.739359 L82.5190894,23.0616817 C84.6580459,24.7595185 86.9360062,25.6074678 89.3529704,25.6055296 C89.9691755,25.6394627 90.5810712,25.4824369 91.1089572,25.1549052 C91.5162628,24.9035853 91.76339,24.4501438 91.7585873,23.9629307 C91.7585873,23.4686974 91.460722,23.0093511 90.8621546,22.5936137 C90.0543278,22.083333 89.1805634,21.6918745 88.2664712,21.4307118 C87.1317463,21.0682741 86.2665185,20.7552596 85.6707879,20.4916685 C84.9614,20.1704405 84.2783641,19.7912756 83.628283,19.3578392 C82.0680362,18.3538672 81.2879128,16.8808581 81.2879128,14.938812 C81.253803,13.0676661 82.1071904,11.2957509 83.5772204,10.1854505 C85.1053167,8.95858895 87.0778469,8.3451582 89.494811,8.3451582 C91.9117751,8.3451582 94.3296849,9.1805094 96.7485402,10.8512118 L94.6209309,14.7614694 C92.8394128,13.5113499 91.0645138,12.885321 89.2962341,12.8833829 C87.5279544,12.8814447 86.6438146,13.3776162 86.6438146,14.3718973 C86.6539247,14.9366354 86.9873713,15.4423907 87.4948583,15.6627184 C88.3908645,16.1097051 89.3229224,16.4764172 90.280608,16.7587534 C91.5798681,17.17546 92.5027777,17.4942889 93.0493369,17.7152403 C93.730365,18.0074378 94.3877265,18.3544875 95.0152479,18.7531302 C96.4317628,19.640812 97.1409659,21.1206046 97.1428571,23.1925082 Z" id="Path" fill="#E91E63"></path>
                    <path d="M101.223471,9.1915058 L100.63278,10.4408761 L100.347423,10.4408761 L99.7424648,9.1915058 L99.7424648,10.6308725 L99.2545033,10.6308725 L99.2545033,8.34803693 L99.9165329,8.34803693 L100.487248,9.60316467 L101.057963,8.34803693 L101.714286,8.34803693 L101.714286,10.6308725 L101.226324,10.6308725 L101.223471,9.1915058 Z M98.2500446,8.7856044 L98.2500446,10.6279937 L97.7620831,10.6279937 L97.7620831,8.7856044 L97.1428571,8.7856044 L97.1428571,8.3451582 L98.8550027,8.3451582 L98.8550027,8.7856044 L98.2500446,8.7856044 Z" id="Shape" fill="#EC298F"></path>
                </g>
            </g>
        </g>
    </g>
</svg>